HIERARCHY
ROOT hip
{
  OFFSET 0.00112043 5.09927 -9.65472
  CHANNELS 6 Xposition Yposition Zposition Zrotation Xrotation Yrotation
  JOINT abdomen
  {
    OFFSET 0 -1.186 -1.5018
    CHANNELS 3 Zrotation Xrotation Yrotation
    JOINT abdomen2
    {
      OFFSET 0 9.964 0.2134
      CHANNELS 3 Zrotation Xrotation Yrotation
      JOINT chest
      {
        OFFSET 0 13.134 -3.2573
        CHANNELS 3 Zrotation Xrotation Yrotation
        JOINT neck
        {
          OFFSET 0 20.686 -1.6905
          CHANNELS 3 Zrotation Xrotation Yrotation
          JOINT head
          {
            OFFSET 0 7.238 -0.1237
            CHANNELS 3 Zrotation Xrotation Yrotation
            End Site
            {
              OFFSET 0 0 0
            }
          }
        }
        JOINT lCollar
        {
          OFFSET 1.7069 20.075 5.0056
          CHANNELS 3 Zrotation Xrotation Yrotation
          JOINT lShldr
          {
            OFFSET 13.6458 -0.047 -4.849
            CHANNELS 3 Zrotation Xrotation Yrotation
            JOINT lForeArm
            {
              OFFSET 28.3255 -0.9759 2.2888
              CHANNELS 3 Zrotation Xrotation Yrotation
              JOINT lHand
              {
                OFFSET 22.1583 -0.53 10.8316
                CHANNELS 3 Zrotation Xrotation Yrotation
                JOINT lThumb1
                {
                  OFFSET 0.786 0.112 2.5817
                  CHANNELS 3 Zrotation Xrotation Yrotation
                  JOINT lThumb2
                  {
                    OFFSET 0.3601 -0.878 4.2331
                    CHANNELS 3 Zrotation Xrotation Yrotation
                    JOINT lThumb2_End
                    {
                      OFFSET 1.8127 -1.216 2.2227
                      CHANNELS 3 Zrotation Xrotation Yrotation
                      End Site
                      {
                        OFFSET 0.0181 -0.0122 0.0222
                      }
                    }
                  }
                }
                JOINT lCarpal1
                {
                  OFFSET 0.9571 1.114 1.7695
                  CHANNELS 3 Zrotation Xrotation Yrotation
                  JOINT lIndex1
                  {
                    OFFSET 4.1246 0.487 4.1451
                    CHANNELS 3 Zrotation Xrotation Yrotation
                    JOINT lIndex2
                    {
                      OFFSET 3.4052 -1.454 2.7682
                      CHANNELS 3 Zrotation Xrotation Yrotation
                      JOINT lIndex2_End
                      {
                        OFFSET 1.4531 -1.795 1.2713
                        CHANNELS 3 Zrotation Xrotation Yrotation
                        End Site
                        {
                          OFFSET 0.0145 -0.0179 0.0127
                        }
                      }
                    }
                  }
                  JOINT lMid1
                  {
                    OFFSET 5.6954 0.21 2.1184
                    CHANNELS 3 Zrotation Xrotation Yrotation
                    JOINT lMid2
                    {
                      OFFSET 3.9766 -1.54 2.3863
                      CHANNELS 3 Zrotation Xrotation Yrotation
                      JOINT lMid2_End
                      {
                        OFFSET 1.4042 -1.926 1.125
                        CHANNELS 3 Zrotation Xrotation Yrotation
                        End Site
                        {
                          OFFSET 0.014 -0.0193 0.0113
                        }
                      }
                    }
                  }
                }
                JOINT lCarpal2
                {
                  OFFSET 2.0956 0.66 -0.3894
                  CHANNELS 3 Zrotation Xrotation Yrotation
                  JOINT lRing1
                  {
                    OFFSET 5.0395 -0.09 2.4971
                    CHANNELS 3 Zrotation Xrotation Yrotation
                    JOINT lRing2
                    {
                      OFFSET 3.7921 -1.552 1.4806
                      CHANNELS 3 Zrotation Xrotation Yrotation
                      JOINT lRing2_End
                      {
                        OFFSET 1.4655 -1.808 0.9609
                        CHANNELS 3 Zrotation Xrotation Yrotation
                        End Site
                        {
                          OFFSET 0.0147 -0.0181 0.0096
                        }
                      }
                    }
                  }
                  JOINT lPinky1
                  {
                    OFFSET 4.9141 -1.269 0.3591
                    CHANNELS 3 Zrotation Xrotation Yrotation
                    JOINT lPinky2
                    {
                      OFFSET 3.1477 -1.685 0.8462
                      CHANNELS 3 Zrotation Xrotation Yrotation
                      JOINT lPinky2_End
                      {
                        OFFSET 0.8055 -1.585 0.7955
                        CHANNELS 3 Zrotation Xrotation Yrotation
                        End Site
                        {
                          OFFSET 0.0081 -0.0158 0.008
                        }
                      }
                    }
                  }
                }
              }
            }
          }
        }
        JOINT rCollar
        {
          OFFSET -1.7069 20.075 5.0056
          CHANNELS 3 Zrotation Xrotation Yrotation
          JOINT rShldr
          {
            OFFSET -13.6458 -0.047 -4.849
            CHANNELS 3 Zrotation Xrotation Yrotation
            JOINT rForeArm
            {
              OFFSET -28.3255 -0.9759 2.2888
              CHANNELS 3 Zrotation Xrotation Yrotation
              JOINT rHand
              {
                OFFSET -22.1583 -0.53 10.8316
                CHANNELS 3 Zrotation Xrotation Yrotation
                JOINT rThumb1
                {
                  OFFSET -0.786 0.112 2.5817
                  CHANNELS 3 Zrotation Xrotation Yrotation
                  JOINT rThumb2
                  {
                    OFFSET -0.3601 -0.878 4.2331
                    CHANNELS 3 Zrotation Xrotation Yrotation
                    JOINT rThumb2_End
                    {
                      OFFSET -1.8127 -1.216 2.2227
                      CHANNELS 3 Zrotation Xrotation Yrotation
                      End Site
                      {
                        OFFSET -0.0181 -0.0122 0.0222
                      }
                    }
                  }
                }
                JOINT rCarpal1
                {
                  OFFSET -0.9571 1.114 1.7695
                  CHANNELS 3 Zrotation Xrotation Yrotation
                  JOINT rIndex1
                  {
                    OFFSET -4.1246 0.487 4.1451
                    CHANNELS 3 Zrotation Xrotation Yrotation
                    JOINT rIndex2
                    {
                      OFFSET -3.4052 -1.454 2.7682
                      CHANNELS 3 Zrotation Xrotation Yrotation
                      JOINT rIndex2_End
                      {
                        OFFSET -1.4531 -1.795 1.2713
                        CHANNELS 3 Zrotation Xrotation Yrotation
                        End Site
                        {
                          OFFSET -0.0145 -0.018 0.0127
                        }
                      }
                    }
                  }
                  JOINT rMid1
                  {
                    OFFSET -5.6954 0.21 2.1184
                    CHANNELS 3 Zrotation Xrotation Yrotation
                    JOINT rMid2
                    {
                      OFFSET -3.9766 -1.54 2.3863
                      CHANNELS 3 Zrotation Xrotation Yrotation
                      JOINT rMid2_End
                      {
                        OFFSET -1.4042 -1.926 1.125
                        CHANNELS 3 Zrotation Xrotation Yrotation
                        End Site
                        {
                          OFFSET -0.014 -0.0193 0.0113
                        }
                      }
                    }
                  }
                }
                JOINT rCarpal2
                {
                  OFFSET -2.0956 0.66 -0.3894
                  CHANNELS 3 Zrotation Xrotation Yrotation
                  JOINT rRing1
                  {
                    OFFSET -5.0395 -0.09 2.4971
                    CHANNELS 3 Zrotation Xrotation Yrotation
                    JOINT rRing2
                    {
                      OFFSET -3.7921 -1.552 1.4806
                      CHANNELS 3 Zrotation Xrotation Yrotation
                      JOINT rRing2_End
                      {
                        OFFSET -1.4655 -1.808 0.9609
                        CHANNELS 3 Zrotation Xrotation Yrotation
                        End Site
                        {
                          OFFSET -0.0147 -0.0181 0.0096
                        }
                      }
                    }
                  }
                  JOINT rPinky1
                  {
                    OFFSET -4.9141 -1.269 0.3592
                    CHANNELS 3 Zrotation Xrotation Yrotation
                    JOINT rPinky2
                    {
                      OFFSET -3.1477 -1.685 0.8462
                      CHANNELS 3 Zrotation Xrotation Yrotation
                      JOINT rPinky2_End
                      {
                        OFFSET -0.8055 -1.585 0.7955
                        CHANNELS 3 Zrotation Xrotation Yrotation
                        End Site
                        {
                          OFFSET -0.0081 -0.0158 0.008
                        }
                      }
                    }
                  }
                }
              }
            }
          }
        }
      }
    }
  }
  JOINT lThigh
  {
    OFFSET 8.367 -8.2066 0.5982
    CHANNELS 3 Zrotation Xrotation Yrotation
    JOINT lShin
    {
      OFFSET 2.1923 -43.463 -0.4932
      CHANNELS 3 Zrotation Xrotation Yrotation
      JOINT lFoot
      {
        OFFSET 0.7333 -45.8593 -2.6451
        CHANNELS 3 Zrotation Xrotation Yrotation
        End Site
        {
          OFFSET 2.6618 -4.2699 12.3931
        }
      }
    }
  }
  JOINT rThigh
  {
    OFFSET -8.367 -8.2066 0.5982
    CHANNELS 3 Zrotation Xrotation Yrotation
    JOINT rShin
    {
      OFFSET -2.1923 -43.463 -0.4931
      CHANNELS 3 Zrotation Xrotation Yrotation
      JOINT rFoot
      {
        OFFSET -0.7333 -45.8593 -2.6451
        CHANNELS 3 Zrotation Xrotation Yrotation
        End Site
        {
          OFFSET -2.6618 -4.2699 12.3931
        }
      }
    }
  }
}
MOTION
Frames:	6
Frame Time:	0.0333333
0 103.835 2.51682 0 0 -0 0 0 -0 0 0 -0 0 0 -0 0 0 -0 0 0 -0 0 0 -0 1.66051 0.0835086 5.75766 -0.0175111 0.895433 15.7816 7.95139e-016 -1.98785e-016 -0 5.46658e-016 -3.97569e-016 -0 5.96354e-016 0 -0 3.97569e-016 1.98785e-016 9.54166e-015 1.49089e-016 -3.97569e-016 -0 6.4605e-016 0 3.18055e-015 5.96354e-016 0 3.18055e-015 8.94531e-016 -1.98785e-016 6.36111e-015 6.4605e-016 0 3.18055e-015 5.96354e-016 0 3.18055e-015 8.94531e-016 -1.98785e-016 6.36111e-015 1.49089e-016 -3.97569e-016 -0 6.4605e-016 0 3.18055e-015 5.96354e-016 0 3.18055e-015 8.94531e-016 -1.98785e-016 6.36111e-015 6.4605e-016 0 3.18055e-015 5.96354e-016 0 3.18055e-015 8.94531e-016 -1.98785e-016 6.36111e-015 0 0 -0 -1.4496 0.0636048 -5.0245 -1.74811 1.20616 -16.8394 -1.19271e-015 1.98785e-016 -3.18055e-015 -3.97569e-016 1.98785e-016 -3.18055e-015 -2.98177e-016 1.98785e-016 -3.18055e-015 -2.98177e-016 3.97569e-016 -0 4.96962e-016 0 -6.36111e-015 -9.93923e-017 3.97569e-016 -0 -8.94531e-016 5.96354e-016 -0 -3.97569e-016 3.97569e-016 -0 -9.93923e-017 3.97569e-016 -0 -8.94531e-016 5.96354e-016 -0 -3.97569e-016 3.97569e-016 -0 4.96962e-016 0 -6.36111e-015 -9.93923e-017 3.97569e-016 -0 -8.94531e-016 5.96354e-016 -0 -3.97569e-016 3.97569e-016 -0 -9.93923e-017 3.97569e-016 -0 -8.94531e-016 5.96354e-016 -0 -3.97569e-016 3.97569e-016 -0 -4.66111 -0.998717 0.12318 0.00986924 1.54847 0.176523 4.65186 -0.572283 -0.254274 4.66111 -0.998765 -0.123176 -0.00986867 1.54869 -0.176537 -4.65186 -0.572453 0.25427 
-0.00039762 4.32277 -92.0117 -180 -83.3313 -180 -0.0670395 9.11552 -0.11652 -0.117295 18.2312 -0.226466 -0.117295 18.2311 -0.226466 4.82836e-007 19.2312 8.81152e-007 -2.0388e-008 9.54106 -1.46264e-007 0.623713 0.716469 9.38698 -81.4547 1.65029 38.2565 35.8604 0.75761 -65.5611 3.06115 26.3365 -3.03671 8.74433e-007 -1.40718e-006 -2.86715e-007 -5.32748e-007 -2.28161e-006 1.11412e-008 -5.32748e-007 -2.28161e-006 1.11411e-008 -1.59028e-015 -5.56597e-015 -0 8.74433e-007 -1.40718e-006 -2.86715e-007 -5.32748e-007 -2.28161e-006 1.11412e-008 -5.32748e-007 -2.28161e-006 1.11411e-008 8.74433e-007 -1.40718e-006 -2.86715e-007 -5.32748e-007 -2.28161e-006 1.11412e-008 -5.32748e-007 -2.28161e-006 1.11411e-008 -1.59028e-015 -5.56597e-015 -0 8.74433e-007 -1.40718e-006 -2.86715e-007 -5.32748e-007 -2.28161e-006 1.11412e-008 -5.32748e-007 -2.28161e-006 1.11411e-008 8.74433e-007 -1.40718e-006 -2.86715e-007 -5.32748e-007 -2.28161e-006 1.11412e-008 -5.32748e-007 -2.28161e-006 1.11411e-008 -0.65926 0.729186 -9.44026 81.6539 1.50139 -37.5372 -36.5991 -0.319057 64.5882 -3.41856 26.2579 3.9012 8.82781e-031 -3.97569e-015 1.27222e-014 -2.15697e-006 7.23472e-007 -1.91698e-006 -1.11648e-007 -1.29329e-006 2.51561e-006 6.62086e-031 -3.97569e-015 9.54166e-015 1.59028e-015 1.11319e-014 2.22639e-014 -2.15697e-006 7.23472e-007 -1.91698e-006 -1.11648e-007 -1.29329e-006 2.51561e-006 1.59028e-015 1.11319e-014 2.22639e-014 -2.15697e-006 7.23472e-007 -1.91698e-006 -1.11648e-007 -1.29329e-006 2.51561e-006 6.62086e-031 -3.97569e-015 9.54166e-015 1.59028e-015 1.11319e-014 2.22639e-014 -2.15697e-006 7.23472e-007 -1.91698e-006 -1.11648e-007 -1.29329e-006 2.51561e-006 1.59028e-015 1.11319e-014 2.22639e-014 -2.15697e-006 7.23472e-007 -1.91698e-006 -1.11648e-007 -1.29329e-006 2.51561e-006 42.0011 -48.5391 12.6054 -171.643 76.227 178.065 12.6651 26.3252 2.2409 -41.9047 -48.5459 -12.4935 171.634 76.2259 -178.069 -12.5869 26.3423 -2.30571 
-0.00147831 11.6725 -86.2789 -180 -89.9981 -180 -0.0603463 8.06055 -0.110005 -0.106486 16.1212 -0.214573 -0.106486 16.1212 -0.214574 5.64329e-006 17.3532 -1.73281e-006 8.78794e-008 8.2005 -9.00152e-008 0.480672 2.05636 9.52356 -75.3505 1.70362 35.9493 33.1768 3.81128 -60.9043 2.31813 25.4932 -2.63301 3.57812e-015 2.38542e-015 3.18055e-015 3.18055e-015 -4.17448e-015 -0 4.37326e-015 -7.95139e-016 6.36111e-015 1.98785e-015 3.18055e-015 3.18055e-015 3.97569e-016 -8.54774e-015 1.27222e-014 4.41391e-031 -3.97569e-015 6.36111e-015 1.19271e-015 5.1684e-015 -0 3.97569e-016 -8.54774e-015 1.27222e-014 4.41391e-031 -3.97569e-015 6.36111e-015 1.19271e-015 5.1684e-015 -0 1.98785e-015 3.18055e-015 3.18055e-015 3.97569e-016 -8.54774e-015 1.27222e-014 4.41391e-031 -3.97569e-015 6.36111e-015 1.19271e-015 5.1684e-015 -0 3.97569e-016 -8.54774e-015 1.27222e-014 4.41391e-031 -3.97569e-015 6.36111e-015 1.19271e-015 5.1684e-015 -0 -0.683895 2.13746 -9.84425 75.8347 1.44208 -35.2667 -34.0262 2.64668 59.7562 -2.68856 25.6412 3.67698 7.95139e-016 6.75868e-015 6.36111e-015 -2.38542e-015 -2.78299e-015 -0 7.95139e-016 -7.95139e-016 -0 2.38542e-015 1.59028e-015 3.18055e-015 -3.18055e-015 7.15625e-015 6.36111e-015 -0 -1.19271e-015 -0 -3.18055e-015 2.38542e-015 -3.18055e-015 -3.18055e-015 7.15625e-015 6.36111e-015 -0 -1.19271e-015 -0 -3.18055e-015 2.38542e-015 -3.18055e-015 2.38542e-015 1.59028e-015 3.18055e-015 -3.18055e-015 7.15625e-015 6.36111e-015 -0 -1.19271e-015 -0 -3.18055e-015 2.38542e-015 -3.18055e-015 -3.18055e-015 7.15625e-015 6.36111e-015 -0 -1.19271e-015 -0 -3.18055e-015 2.38542e-015 -3.18055e-015 37.2672 -45.3029 9.73154 -163.498 83.2993 169.324 11.5429 24.7341 2.40513 -36.7064 -45.3178 -9.04518 163.498 83.301 -169.343 -11.0256 24.8415 -2.80062 
-0.00256539 11.6759 -86.2755 -180 -89.9981 -180 -0.0584542 7.65997 -0.111246 -0.103146 15.32 -0.217483 -0.103147 15.32 -0.217484 -5.66657e-006 16.8379 1.05544e-006 6.78015e-009 7.56076 -1.10619e-007 0.36313 3.35441 10.2606 -75.0406 1.83334 35.8882 33.1768 3.81129 -60.9043 1.91359 26.3845 -2.61757 -1.07576e-006 1.43182e-006 -2.36899e-006 3.05822e-006 -2.10322e-006 -8.85072e-007 1.59028e-015 -1.98785e-015 -0 2.20695e-032 3.97569e-016 -3.18055e-015 -1.07576e-006 1.43182e-006 -2.36899e-006 3.05822e-006 -2.10322e-006 -8.85072e-007 6.62086e-032 1.19271e-015 -3.18055e-015 -1.07576e-006 1.43182e-006 -2.36899e-006 3.05822e-006 -2.10322e-006 -8.85072e-007 6.62086e-032 1.19271e-015 -3.18055e-015 2.20695e-032 3.97569e-016 -3.18055e-015 -1.07576e-006 1.43182e-006 -2.36899e-006 3.05822e-006 -2.10322e-006 -8.85072e-007 6.62086e-032 1.19271e-015 -3.18055e-015 -1.07576e-006 1.43182e-006 -2.36899e-006 3.05822e-006 -2.10322e-006 -8.85072e-007 6.62086e-032 1.19271e-015 -3.18055e-015 -0.718699 3.50297 -10.8317 75.7885 1.45971 -35.2414 -34.0474 2.5561 59.583 -2.33831 26.7352 3.89643 -2.23942e-006 -6.92127e-007 5.76694e-007 -1.54729e-006 -2.93155e-006 6.461e-007 -2.23942e-006 -6.92127e-007 5.76694e-007 -1.59028e-015 4.37326e-015 -0 -2.23942e-006 -6.92127e-007 5.76694e-007 -1.54729e-006 -2.93155e-006 6.461e-007 -2.23942e-006 -6.92127e-007 5.76694e-007 -2.23942e-006 -6.92127e-007 5.76694e-007 -1.54729e-006 -2.93155e-006 6.461e-007 -2.23942e-006 -6.92127e-007 5.76694e-007 -1.59028e-015 4.37326e-015 -0 -2.23942e-006 -6.92127e-007 5.76694e-007 -1.54729e-006 -2.93155e-006 6.461e-007 -2.23942e-006 -6.92127e-007 5.76694e-007 -2.23942e-006 -6.92127e-007 5.76694e-007 -1.54729e-006 -2.93155e-006 6.461e-007 -2.23942e-006 -6.92127e-007 5.76694e-007 36.4674 -45.3582 8.74077 -163.509 83.299 169.35 10.8085 24.8623 2.94767 -35.4498 -45.3713 -7.49763 163.514 83.3008 -169.386 -9.8704 25.0458 -3.66187 
-0.00361699 11.6793 -86.2722 -180 -89.9981 -180 -0.056566 7.25868 -0.11245 -0.0998527 14.5175 -0.220295 -0.0998527 14.5174 -0.220295 1.07713e-006 16.319 -2.9267e-007 1.56835e-008 6.91991 8.22107e-008 0.228629 4.65119 11.0016 -74.7305 1.96272 35.8264 33.1768 3.81129 -60.9043 1.50553 27.2759 -2.59495 8.02488e-007 -1.45387e-006 -3.23379e-007 3.05884e-006 -2.10525e-006 -8.77903e-007 1.60498e-006 -2.90773e-006 -6.46759e-007 -3.57812e-015 -3.37934e-015 6.36111e-015 8.02488e-007 -1.45387e-006 -3.23379e-007 3.05884e-006 -2.10525e-006 -8.77903e-007 1.60498e-006 -2.90773e-006 -6.46759e-007 8.02488e-007 -1.45387e-006 -3.23379e-007 3.05884e-006 -2.10525e-006 -8.77903e-007 1.60498e-006 -2.90773e-006 -6.46759e-007 -3.57812e-015 -3.37934e-015 6.36111e-015 8.02488e-007 -1.45387e-006 -3.23379e-007 3.05884e-006 -2.10525e-006 -8.77903e-007 1.60498e-006 -2.90773e-006 -6.46759e-007 8.02488e-007 -1.45387e-006 -3.23379e-007 3.05884e-006 -2.10525e-006 -8.77903e-007 1.60498e-006 -2.90773e-006 -6.46759e-007 -0.729948 4.86933 -11.8203 75.7422 1.47731 -35.216 -34.069 2.46553 59.4097 -1.9893 27.8305 4.11051 -3.97252e-031 7.15625e-015 3.18055e-015 -1.59028e-015 5.1684e-015 -1.27222e-014 -2.38542e-015 1.03368e-014 9.54166e-015 -1.10348e-031 1.98785e-015 3.18055e-015 -2.38542e-015 -1.19271e-015 1.59028e-014 7.95139e-016 9.14409e-015 -3.18055e-015 7.95139e-016 5.1684e-015 3.18055e-015 -2.38542e-015 -1.19271e-015 1.59028e-014 7.95139e-016 9.14409e-015 -3.18055e-015 7.95139e-016 5.1684e-015 3.18055e-015 -1.10348e-031 1.98785e-015 3.18055e-015 -2.38542e-015 -1.19271e-015 1.59028e-014 7.95139e-016 9.14409e-015 -3.18055e-015 7.95139e-016 5.1684e-015 3.18055e-015 -2.38542e-015 -1.19271e-015 1.59028e-014 7.95139e-016 9.14409e-015 -3.18055e-015 7.95139e-016 5.1684e-015 3.18055e-015 35.6632 -45.4053 7.74619 -163.52 83.2976 169.379 10.0718 24.9843 3.49288 -34.1903 -45.4009 -5.94728 163.529 83.3007 -169.429 -8.70993 25.2346 -4.52926 
-0.00464018 11.6828 -86.2688 -180 -89.9981 -180 -0.0546847 6.85762 -0.113614 -0.0966076 13.7153 -0.223004 -0.0966077 13.7153 -0.223004 1.69896e-006 15.7998 -1.03948e-006 -1.88183e-008 6.278 -9.49898e-009 0.077005 5.946 11.7472 -74.4202 2.0918 35.7638 33.1768 3.81127 -60.9043 1.09375 28.167 -2.56493 1.59028e-015 5.96354e-016 -9.54166e-015 1.59028e-015 -2.18663e-015 -1.27222e-014 2.78299e-015 3.18055e-015 -9.54166e-015 -1.87591e-031 -3.37934e-015 -3.18055e-015 6.36111e-015 2.18663e-015 9.54166e-015 7.95139e-016 8.15017e-015 -3.18055e-015 1.59028e-015 4.57205e-015 -1.27222e-014 6.36111e-015 2.18663e-015 9.54166e-015 7.95139e-016 8.15017e-015 -3.18055e-015 1.59028e-015 4.57205e-015 -1.27222e-014 -1.87591e-031 -3.37934e-015 -3.18055e-015 6.36111e-015 2.18663e-015 9.54166e-015 7.95139e-016 8.15017e-015 -3.18055e-015 1.59028e-015 4.57205e-015 -1.27222e-014 6.36111e-015 2.18663e-015 9.54166e-015 7.95139e-016 8.15017e-015 -3.18055e-015 1.59028e-015 4.57205e-015 -1.27222e-014 -0.717507 6.23555 -12.8108 75.6958 1.49491 -35.1906 -34.0908 2.37504 59.2364 -1.64137 28.9269 4.31921 1.59028e-015 -2.38542e-015 3.18055e-015 7.69204e-007 1.46787e-006 -3.24603e-007 -7.95139e-016 -1.98785e-015 -3.18055e-015 1.59028e-015 -1.19271e-015 3.18055e-015 -1.59028e-015 -4.77083e-015 9.54166e-015 7.69204e-007 1.46787e-006 -3.24603e-007 2.42765e-031 4.37326e-015 -3.18055e-015 -1.59028e-015 -4.77083e-015 9.54166e-015 7.69204e-007 1.46787e-006 -3.24603e-007 2.42765e-031 4.37326e-015 -3.18055e-015 1.59028e-015 -1.19271e-015 3.18055e-015 -1.59028e-015 -4.77083e-015 9.54166e-015 7.69204e-007 1.46787e-006 -3.24603e-007 2.42765e-031 4.37326e-015 -3.18055e-015 -1.59028e-015 -4.77083e-015 9.54166e-015 7.69204e-007 1.46787e-006 -3.24603e-007 2.42765e-031 4.37326e-015 -3.18055e-015 34.8596 -45.4405 6.75175 -163.53 83.2976 169.404 9.33301 25.1001 4.04056 -32.93 -45.4062 -4.39618 163.543 83.3008 -169.471 -7.54477 25.408 -5.40229 
